<mxfile host="app.diagrams.net" modified="2023-11-23T10:44:38.218Z" agent="Mozilla/5.0 (Windows NT 10.0; Win64; x64) AppleWebKit/537.36 (KHTML, like Gecko) Chrome/121.0.0.0 Safari/537.36" version="21.7.2" etag="A4EJjgZ1n1KwyUg2XO8g" type="github">
  <diagram name="Page-1" id="MOEMqx9CuzStHOowqUIn">
    <mxGraphModel>
      <root>
        <mxCell id="0" />
        <mxCell id="1" parent="0" />
      </root>
    </mxGraphModel>
  </diagram>
</mxfile>
